<svg xmlns="http://www.w3.org/2000/svg" fill="none" viewBox="0 0 348 348"><path stroke="#000" stroke-width="2" d="M5.079 5.776h336.913v337.67H5.08z"/><path stroke="#000" stroke-width="2" d="M282.734 40.554c0-8.376 6.966-15.165 15.56-15.165 4.126 0 8.084 1.597 11.001 4.441 2.918 2.844 4.558 6.702 4.558 10.724 0 8.376-6.966 15.165-15.56 15.165-8.593 0-15.559-6.79-15.559-15.165z"/><path fill="#a1a1a1" d="M59.765 34.151h143.924v142.704H59.765zM79.03 210.875h57.326v114.651H79.03zM144.814 210.852h57.326v114.651h-57.326zM261.78 119.882h50.007v14.026H261.78zM261.803 103.534h50.007v14.026h-50.007zM261.39 86.705h50.007v14.026H261.39zM261.557 136.64h50.007v14.026h-50.007zM261.098 153.587h50.007v14.026h-50.007zM210.155 211h57.326v114.651h-57.326zM276.447 210.78h57.326v114.651h-57.326zM13.917 211.462h57.326v114.651H13.917z"/><path fill="#fff" d="M218.993 227.303h38.42v14.026h-38.42zM286.526 227h38.42v14.026h-38.42zM154.444 226.341h38.42v14.026h-38.42zM88.845 226.561h38.42v14.026h-38.42zM23.137 226.341h38.42v14.026h-38.42z"/><text xml:space="preserve" x="-151.852" y="262.234" fill="#fff" font-size="42.667" style="line-height:0;text-align:start"/></svg>